<svg width="32" height="32" viewBox="0 0 32 32" fill="none" xmlns="http://www.w3.org/2000/svg">
  <rect width="32" height="32" fill="#000000"/>
  <path d="M16 4L20 12L16 16L12 12L16 4Z" fill="#627EEA"/>
  <path d="M12 12L16 16L12 20L8 16L12 12Z" fill="#627EEA"/>
  <path d="M20 12L16 16L20 20L24 16L20 12Z" fill="#627EEA"/>
  <path d="M16 16L20 20L16 24L12 20L16 16Z" fill="#627EEA"/>
  <path d="M16 16L12 12L8 16L12 20L16 16Z" fill="#627EEA" opacity="0.8"/>
  <path d="M16 16L20 12L24 16L20 20L16 16Z" fill="#627EEA" opacity="0.8"/>
  <path d="M16 16L12 20L16 24L20 20L16 16Z" fill="#627EEA" opacity="0.6"/>
</svg>